<svg width="77" height="66" viewBox="0 0 77 66" fill="none" xmlns="http://www.w3.org/2000/svg">
<g clip-path="url(#clip0_117_2)">
<path d="M76.9435 37.5438C76.9208 36.256 76.8541 34.9732 76.7308 33.6917C76.6679 33.0327 76.5949 32.3762 76.5181 31.7197C76.4011 30.7243 76.2425 29.7376 76.0462 28.7586C75.6901 26.9819 75.2245 25.2379 74.5953 23.5494C74.1963 22.4771 73.7358 21.4363 73.2072 20.4308C72.7995 19.6558 72.3565 18.9073 71.867 18.1903C71.7399 18.0051 71.6455 17.8098 71.6229 17.5729C71.5725 17.0462 71.5121 16.5208 71.4517 15.9953C71.4027 15.5644 71.3586 15.1309 71.2944 14.7025C71.2164 14.1795 71.1195 13.6604 71.0314 13.14C70.849 12.0614 70.6212 10.9916 70.367 9.93058C70.1354 8.96033 69.885 7.99511 69.6295 7.03116C69.4559 6.37718 69.2671 5.72699 69.0356 5.09191C68.8305 4.52614 68.5888 3.97927 68.2705 3.47776C67.338 2.01104 66.0305 1.29406 64.3958 1.24113C63.6898 1.21845 62.9977 1.35202 62.3119 1.50701C61.105 1.78044 59.9561 2.23659 58.855 2.83638C58.0861 3.25473 57.3524 3.73607 56.6238 4.22624C55.5818 4.9281 54.5713 5.68288 53.5973 6.48933C52.4559 7.43564 51.3536 8.43236 50.3279 9.52358C50.0574 9.81214 49.7491 9.99485 49.3665 10.0566C48.6203 10.1763 47.8942 10.4006 47.1744 10.6413C45.1483 11.3154 43.2682 12.3159 41.509 13.5886C40.9112 14.0208 40.3273 14.4744 39.7686 14.9633C39.6729 15.0465 39.576 15.1271 39.4728 15.1989C39.3797 15.2632 39.2765 15.2821 39.1784 15.2052C39.0928 15.1397 39.0072 15.0729 38.9242 15.0036C38.5769 14.7151 38.2358 14.4177 37.8809 14.1392C36.2966 12.898 34.5915 11.8988 32.7479 11.1806C31.6417 10.7496 30.5142 10.4018 29.3527 10.1914C28.8153 10.0944 28.3761 9.83734 28.025 9.35977C27.5783 8.75368 27.09 8.18034 26.5678 7.64481C26.3639 7.43564 26.1525 7.23781 25.9474 7.03116C25.3446 6.42254 24.7053 5.86055 24.0547 5.31494C22.8353 4.2905 21.5568 3.35931 20.2241 2.5138C19.3759 1.97575 18.5089 1.48181 17.5965 1.08488C16.8314 0.752224 16.0499 0.476269 15.2408 0.292299C14.7764 0.187713 14.307 0.129749 13.8414 0.050365C13.2739 -0.0466605 12.7151 -0.00507815 12.1715 0.13983C10.6941 0.534232 9.58167 1.44526 8.91723 2.94601C8.58375 3.69827 8.31067 4.47699 8.08416 5.27336C7.9407 5.77991 7.80101 6.28772 7.67265 6.79805C7.21333 8.62263 6.77414 10.4523 6.46835 12.3172C6.30098 13.3416 6.13739 14.366 6.05811 15.4031C6.05181 15.4787 6.03923 15.553 6.03168 15.6286C5.99644 15.9802 5.86053 16.2687 5.63779 16.5334C5.35591 16.8685 5.09542 17.2289 4.85128 17.5981C3.74891 19.2627 2.9624 21.0885 2.4691 23.0643C2.16708 24.2727 1.95063 25.495 1.8487 26.7425C1.83989 26.8559 1.81347 26.9667 1.80591 27.0802C1.78704 27.3637 1.76816 27.6459 1.76061 27.9294C1.75558 28.1273 1.86129 28.2382 2.05508 28.247C2.21238 28.2545 2.37094 28.2533 2.52825 28.2533C5.23007 28.2533 7.93189 28.252 10.6337 28.2508C11.721 28.2508 12.8095 28.2508 13.8968 28.2482C14.0012 28.2482 14.1057 28.2369 14.2089 28.218C14.2819 28.2041 14.3297 28.1424 14.3523 28.068C14.3687 28.0151 14.38 27.9572 14.3788 27.9017C14.3687 27.4632 14.4417 27.0335 14.5084 26.6051C14.6204 25.8944 14.794 25.2014 15.0772 24.5449C15.4849 23.5973 16.0864 22.8236 16.8679 22.2075C17.4984 21.7097 18.2018 21.3733 18.943 21.1288C19.8705 20.8226 20.8219 20.6702 21.7921 20.6576C22.2653 20.6513 22.7397 20.6538 23.2128 20.65C24.0736 20.6437 24.9281 20.7256 25.7788 20.8693C26.491 20.989 27.1869 21.1717 27.8627 21.4413C28.3749 21.6455 28.8656 21.8975 29.3124 22.2377C30.2335 22.9396 30.8703 23.8569 31.1497 25.0514C31.2969 25.6815 31.3674 26.3153 31.3359 26.9617C31.3007 27.6951 31.1044 28.3742 30.7319 28.9904C30.3795 29.5726 29.9051 30.0149 29.3527 30.3652C28.7436 30.752 28.0879 31.0166 27.4071 31.2119C26.5263 31.4652 25.634 31.6618 24.7318 31.8029C24.3857 31.8571 24.0409 31.9264 23.6948 31.9831C23.3651 32.036 23.0354 32.0826 22.7057 32.1305C22.3584 32.1809 22.0098 32.225 21.6637 32.2817C21.11 32.3737 20.5576 32.4796 20.0039 32.5703C19.0513 32.7253 18.0974 32.8765 17.1448 33.0239C16.3129 33.1537 15.4836 33.3036 14.6569 33.4725C13.2776 33.7522 11.9135 34.0924 10.5695 34.5272C9.24064 34.9569 7.94825 35.4924 6.72758 36.2144C5.98763 36.6529 5.28418 37.1532 4.63861 37.7391C2.98128 39.2461 1.76439 41.0921 1.0043 43.2872C0.578959 44.5158 0.29959 45.7783 0.157389 47.0825C0.0604909 47.9683 0.0328057 48.8554 0.00512052 49.7438C-0.00746365 50.1584 0.0529404 50.5742 0.0567156 50.99C0.0617493 51.5419 0.133479 52.0863 0.210242 52.6268C0.322242 53.4106 0.483319 54.1868 0.707317 54.9454C1.45608 57.4806 2.68555 59.6996 4.43852 61.5759C5.69065 62.9153 7.15293 63.9007 8.80397 64.5622C10.1064 65.0839 11.4454 65.4481 12.8208 65.6673C13.1329 65.7165 13.4475 65.7454 13.7584 65.7984C14.3309 65.8966 14.9123 65.8903 15.4862 65.9697C16.9761 65.9937 18.4661 66.0478 19.9561 65.8979C20.6192 65.8311 21.2812 65.7618 21.9406 65.6635C22.7397 65.5451 23.5312 65.3838 24.3165 65.1897C26.3627 64.6832 28.3107 63.8994 30.1367 62.7754C31.453 61.9652 32.6698 61.0101 33.7773 59.8937C34.5474 59.1175 35.271 58.2946 35.9229 57.3987C35.977 57.3256 36.0411 57.2601 36.1028 57.1946C36.1469 57.1467 36.2475 57.1593 36.2916 57.2173C36.3457 57.2904 36.3998 57.366 36.4501 57.4428C36.9321 58.1661 37.4468 58.8604 38.0194 59.503C38.6284 60.1873 39.2853 60.8135 39.9787 61.3944C41.6134 62.7616 43.4016 63.8289 45.3522 64.5761C46.4936 65.0133 47.6601 65.346 48.8569 65.5602C49.8095 65.7303 50.7634 65.8651 51.7286 65.8992C52.1136 65.913 52.4987 65.9609 52.8838 65.9659C53.6904 65.9748 54.4958 65.9899 55.3025 65.9092C55.8423 65.8551 56.3872 65.8513 56.9283 65.7858C57.4682 65.7215 58.0056 65.6446 58.5442 65.5615C59.4653 65.4191 60.3739 65.2149 61.2724 64.9617C63.233 64.4072 65.1018 63.6121 66.8547 62.5058C68.1773 61.6704 69.398 60.6875 70.5155 59.5572C71.4782 58.5832 72.3465 57.5197 73.133 56.3768C73.9736 55.1583 74.706 53.8705 75.2874 52.4857C75.8046 51.2559 76.1607 49.9731 76.3747 48.6437C76.3898 48.5518 76.3809 48.456 76.3822 48.3615C76.3822 48.3086 76.2992 48.2027 76.2513 48.1989C76.1117 48.1876 75.972 48.1712 75.8335 48.1712C74.3776 48.17 72.9216 48.1712 71.4643 48.1712C68.9034 48.1687 66.3413 48.1649 63.7804 48.1586C63.423 48.1586 63.2733 48.17 63.1286 48.6513C62.9058 49.3935 62.5799 50.0853 62.1873 50.738C61.4649 51.9376 60.5262 52.8788 59.3319 53.5177C58.8109 53.7962 58.266 54.0041 57.7086 54.1692C56.9988 54.3796 56.2828 54.5573 55.5516 54.6694C55.0483 54.7463 54.5436 54.8194 54.0365 54.8408C53.2664 54.8735 52.4962 54.8786 51.7248 54.7778C51.2025 54.7097 50.6828 54.6392 50.1656 54.5295C49.4383 54.3771 48.7423 54.1238 48.0804 53.7659C46.5577 52.9419 45.4189 51.6919 44.6084 50.0853C44.0837 49.0445 43.7766 47.9217 43.5564 46.7688C43.4507 46.2131 43.3702 45.6536 43.3047 45.0891C43.233 44.4691 43.1801 43.8479 43.1474 43.2254C43.1185 42.6773 43.1248 42.1279 43.1172 41.5785C43.116 41.4462 43.121 41.3139 43.1285 41.1816C43.1336 41.0858 43.2091 41.0002 43.2959 40.9964C43.4885 40.9876 43.681 40.9813 43.8735 40.9813C49.2419 40.9813 54.6116 40.9813 59.98 40.9813C62.2603 40.9813 64.5418 40.9813 66.822 40.9813C69.9806 40.9813 73.138 40.9838 76.2966 40.985C76.42 40.985 76.542 40.985 76.6654 40.9787C76.8503 40.9687 76.9724 40.854 76.9863 40.67C76.9988 40.5201 76.9976 40.3676 77.0014 40.2164C77.019 39.3268 76.9636 38.4384 76.9485 37.5488L76.9435 37.5438ZM19.4842 14.2589C19.4691 14.3572 19.3533 14.3975 19.2765 14.3446C19.0966 14.2199 18.9594 14.0472 18.8285 13.8696C18.4019 13.2937 17.9753 12.7166 17.55 12.1382C16.9069 11.2625 16.2324 10.417 15.4774 9.64959C14.8129 8.97419 14.1195 8.33659 13.3833 7.75444C13.0838 7.51881 12.8208 7.24411 12.5717 6.95051C12.4634 6.82325 12.3728 6.68212 12.3225 6.52083C12.2256 6.21211 12.2558 5.87819 12.5515 5.6665C12.622 5.61484 12.7063 5.57326 12.7906 5.55688C13.0171 5.51277 13.2437 5.52537 13.4651 5.60224C13.7332 5.69548 13.9886 5.81897 14.2303 5.97522C15.349 6.69598 16.396 7.51881 17.2995 8.53568C17.9829 9.30433 18.5655 10.1524 18.9871 11.1226C19.2652 11.7627 19.4275 12.4369 19.5232 13.1312C19.5483 13.3177 19.5395 13.5079 19.5471 13.7385C19.5295 13.8859 19.5118 14.0724 19.4842 14.2577V14.2589ZM31.229 44.4112C31.239 45.113 31.1824 45.8111 31.1069 46.5041C30.9949 47.5399 30.7558 48.5455 30.3934 49.5157C30.1241 50.239 29.7856 50.9207 29.3715 51.557C28.6983 52.5928 27.8577 53.4358 26.856 54.0948C25.9184 54.7122 24.9054 55.1205 23.8458 55.4015C23.1487 55.5867 22.4414 55.7052 21.7254 55.7909C20.9376 55.8841 20.1511 55.8904 19.3633 55.8602C18.6486 55.8325 17.7928 55.7304 17.1297 55.5351C16.3759 55.312 15.6925 54.9428 15.081 54.4187C14.0667 53.5505 13.4387 52.4177 13.138 51.0706C12.9819 50.37 12.8951 49.6581 12.924 48.9348C12.9794 47.6042 13.3167 46.3655 13.9824 45.2416C14.4052 44.5284 14.9727 43.9701 15.6523 43.5468C15.9707 43.3477 16.3041 43.1788 16.6464 43.0327C17.6745 42.5929 18.7379 42.2779 19.8151 42.0158C21.3856 41.634 22.9687 41.3114 24.5468 40.9687C25.8505 40.6851 27.1492 40.3739 28.4479 40.0652C29.3111 39.8598 30.114 39.4906 30.8527 38.9626C30.9395 38.9009 31.0352 38.8517 31.1295 38.8064C31.1472 38.7976 31.205 38.8328 31.2088 38.8543C31.2239 38.9462 31.2327 39.0407 31.2327 39.134C31.234 40.1559 31.2327 41.1766 31.2327 42.1985H31.2264C31.2264 42.9356 31.2176 43.674 31.229 44.4112ZM41.0836 35.5428C40.847 36.2636 40.5035 36.92 40.0819 37.5312C39.834 37.889 39.566 38.2267 39.274 38.543C38.9179 38.9311 38.5504 39.3066 38.1616 39.6569C38.0987 39.7136 38.0332 39.7691 37.9653 39.8195C37.8193 39.9278 37.7035 39.9266 37.5689 39.8144C37.4707 39.7325 37.3751 39.6481 37.2807 39.5599C36.8893 39.197 36.5055 38.8228 36.1519 38.417C35.7555 37.9609 35.3918 37.477 35.0873 36.944C34.8696 36.5634 34.6858 36.1653 34.5273 35.7532C34.4039 35.4332 34.3209 35.098 34.2869 34.754C34.2416 34.2991 34.3221 33.8644 34.5424 33.47C34.7022 33.1827 34.9514 33.039 35.2572 33.0063C35.4874 32.9823 35.7114 33.0264 35.9279 33.1046C36.0638 33.1537 36.201 33.2104 36.3268 33.2835C36.7484 33.5267 37.1309 33.8278 37.4543 34.2109C37.5374 34.3092 37.6091 34.4201 37.6859 34.5247C37.7337 34.5902 37.7941 34.5965 37.8407 34.5385C37.8948 34.4717 37.9489 34.4037 38.0005 34.3344C38.4258 33.7636 38.9644 33.3654 39.5962 33.1109C39.8013 33.0277 40.0127 32.9861 40.2329 33.0037C40.6256 33.0352 40.9188 33.228 41.0836 33.6224C41.2044 33.911 41.2548 34.2159 41.2648 34.4742C41.2598 34.88 41.1906 35.2152 41.0836 35.5428ZM63.3362 31.968C63.1437 31.978 62.9511 31.9843 62.7586 31.9843C59.6541 31.9843 56.5496 31.9843 53.4451 31.9843C50.3053 31.9843 47.1655 31.9843 44.0258 31.9843C43.8509 31.9843 43.6747 31.9806 43.4998 31.9692C43.3689 31.9617 43.277 31.8394 43.2859 31.6971C43.306 31.3946 43.3173 31.0922 43.35 30.7911C43.5111 29.3231 43.7603 27.8765 44.28 26.4967C44.7129 25.345 45.2918 24.2941 46.1097 23.4108C46.9416 22.5111 47.9281 21.8748 49.0305 21.4426C49.7415 21.1641 50.4752 20.9927 51.2214 20.8667C52.1074 20.7168 52.9958 20.6387 53.8918 20.6702C54.628 20.6966 55.3591 20.7874 56.0827 20.9386C56.547 21.0356 57.0051 21.1591 57.4544 21.3229C58.9657 21.871 60.1776 22.8589 61.144 24.2135C61.9016 25.2757 62.4226 26.4678 62.8089 27.7354C63.0669 28.5822 63.2355 29.4491 63.3601 30.3299C63.4268 30.7974 63.4331 31.2724 63.5174 31.7374C63.5376 31.8457 63.4407 31.9654 63.3349 31.9705L63.3362 31.968ZM65.2641 7.65615C65.1961 7.92077 65.0527 8.13372 64.8878 8.32903C64.7708 8.46764 64.6336 8.58861 64.4977 8.70705C64.0208 9.12414 63.535 9.52736 63.0656 9.952C62.6365 10.3414 62.2175 10.7433 61.8097 11.1592C61.5555 11.4187 61.3265 11.706 61.0975 11.9921C60.6621 12.5351 60.2279 13.0808 59.8051 13.6352C59.5043 14.0296 59.2275 14.4442 58.9343 14.8436C58.782 15.0515 58.6197 15.2493 58.4561 15.4472C58.4108 15.5014 58.3466 15.5392 58.2874 15.577C58.2233 15.6185 58.0836 15.548 58.0773 15.4699C58.0521 15.2078 58.0106 14.9444 58.0144 14.6823C58.0181 14.4391 58.0609 14.1934 58.1062 13.9527C58.3252 12.8061 58.748 11.764 59.4276 10.8378C60.5526 9.30559 61.8953 8.05686 63.4885 7.12314C63.5967 7.06014 63.7037 6.99588 63.8144 6.94043C64.0699 6.81065 64.2548 6.7678 64.5657 6.7678C64.6122 6.77284 64.7003 6.77788 64.7859 6.79553C65.1546 6.87239 65.3648 7.26427 65.2641 7.65489V7.65615Z" fill="#D9C4E7"/>
</g>
<defs>
<clipPath id="clip0_117_2">
<rect width="77" height="66" fill="white"/>
</clipPath>
</defs>
</svg>
