<svg width="49" height="49" viewBox="0 0 49 49" fill="none" xmlns="http://www.w3.org/2000/svg">
<mask id="mask0_216_7" style="mask-type:alpha" maskUnits="userSpaceOnUse" x="0" y="0" width="49" height="49">
<rect x="0.78418" y="0.837646" width="47.4964" height="47.4964" fill="#D9D9D9"/>
</mask>
<g mask="url(#mask0_216_7)">
<path d="M24.5323 42.397L21.6628 39.8243C18.3314 36.8227 15.5773 34.2335 13.4004 32.0566C11.2235 29.8797 9.49183 27.9254 8.20547 26.1938C6.91911 24.4621 6.0203 22.8707 5.50906 21.4194C4.99781 19.9681 4.74219 18.4839 4.74219 16.9666C4.74219 13.8662 5.78117 11.2769 7.85914 9.19898C9.9371 7.12101 12.5263 6.08203 15.6268 6.08203C17.3419 6.08203 18.9746 6.44485 20.5248 7.17049C22.0751 7.89613 23.4109 8.91862 24.5323 10.238C25.6538 8.91862 26.9896 7.89613 28.5399 7.17049C30.0901 6.44485 31.7228 6.08203 33.4379 6.08203C36.5384 6.08203 39.1276 7.12101 41.2056 9.19898C43.2835 11.2769 44.3225 13.8662 44.3225 16.9666C44.3225 18.4839 44.0669 19.9681 43.5556 21.4194C43.0444 22.8707 42.1456 24.4621 40.8592 26.1938C39.5729 27.9254 37.8412 29.8797 35.6643 32.0566C33.4874 34.2335 30.7333 36.8227 27.4019 39.8243L24.5323 42.397Z" fill="#D9C4E7"/>
</g>
</svg>
