<svg width="41" height="41" viewBox="0 0 41 41" fill="none" xmlns="http://www.w3.org/2000/svg">
<mask id="mask0_82_973" style="mask-type:alpha" maskUnits="userSpaceOnUse" x="0" y="0" width="41" height="41">
<rect width="41" height="41" fill="#D9D9D9"/>
</mask>
<g mask="url(#mask0_82_973)">
<path d="M6.83341 34.1666C5.89383 34.1666 5.08949 33.832 4.42039 33.1629C3.7513 32.4938 3.41675 31.6895 3.41675 30.7499V10.2499C3.41675 9.31034 3.7513 8.506 4.42039 7.8369C5.08949 7.1678 5.89383 6.83325 6.83341 6.83325H34.1667C35.1063 6.83325 35.9107 7.1678 36.5798 7.8369C37.2489 8.506 37.5834 9.31034 37.5834 10.2499V30.7499C37.5834 31.6895 37.2489 32.4938 36.5798 33.1629C35.9107 33.832 35.1063 34.1666 34.1667 34.1666H6.83341ZM20.5001 22.2083L6.83341 13.6666V30.7499H34.1667V13.6666L20.5001 22.2083ZM20.5001 18.7916L34.1667 10.2499H6.83341L20.5001 18.7916ZM6.83341 13.6666V10.2499V30.7499V13.6666Z" fill="#D2D2D2"/>
</g>
</svg>
