<svg width="56" height="55" viewBox="0 0 56 55" fill="none" xmlns="http://www.w3.org/2000/svg">
<mask id="mask0_67_715" style="mask-type:alpha" maskUnits="userSpaceOnUse" x="0" y="0" width="56" height="55">
<rect x="0.689453" width="54.7528" height="54.7528" fill="#D9D9D9"/>
</mask>
<g mask="url(#mask0_67_715)">
<path d="M28.0657 27.3764C25.5562 27.3764 23.408 26.4829 21.6209 24.6958C19.8338 22.9087 18.9403 20.7605 18.9403 18.251C18.9403 15.7414 19.8338 13.5932 21.6209 11.8061C23.408 10.019 25.5562 9.12549 28.0657 9.12549C30.5752 9.12549 32.7235 10.019 34.5106 11.8061C36.2977 13.5932 37.1912 15.7414 37.1912 18.251C37.1912 20.7605 36.2977 22.9087 34.5106 24.6958C32.7235 26.4829 30.5752 27.3764 28.0657 27.3764ZM9.81482 45.6273V39.2395C9.81482 37.9467 10.1475 36.7585 10.8129 35.6749C11.4783 34.5912 12.3623 33.7642 13.465 33.1939C15.8224 32.0152 18.2178 31.1312 20.6513 30.5418C23.0848 29.9525 25.5562 29.6578 28.0657 29.6578C30.5752 29.6578 33.0467 29.9525 35.4802 30.5418C37.9136 31.1312 40.3091 32.0152 42.6665 33.1939C43.7691 33.7642 44.6532 34.5912 45.3186 35.6749C45.984 36.7585 46.3167 37.9467 46.3167 39.2395V45.6273H9.81482ZM14.3776 41.0646H41.7539V39.2395C41.7539 38.8213 41.6494 38.441 41.4403 38.0988C41.2311 37.7566 40.9555 37.4905 40.6133 37.3004C38.56 36.2737 36.4878 35.5038 34.3965 34.9905C32.3053 34.4772 30.195 34.2205 28.0657 34.2205C25.9365 34.2205 23.8262 34.4772 21.735 34.9905C19.6437 35.5038 17.5715 36.2737 15.5182 37.3004C15.176 37.4905 14.9004 37.7566 14.6912 38.0988C14.4821 38.441 14.3776 38.8213 14.3776 39.2395V41.0646ZM28.0657 22.8137C29.3205 22.8137 30.3946 22.3669 31.2882 21.4734C32.1817 20.5798 32.6285 19.5057 32.6285 18.251C32.6285 16.9962 32.1817 15.9221 31.2882 15.0285C30.3946 14.135 29.3205 13.6882 28.0657 13.6882C26.811 13.6882 25.7369 14.135 24.8433 15.0285C23.9498 15.9221 23.503 16.9962 23.503 18.251C23.503 19.5057 23.9498 20.5798 24.8433 21.4734C25.7369 22.3669 26.811 22.8137 28.0657 22.8137Z" fill="#91829A"/>
</g>
</svg>
