<svg width="37" height="37" viewBox="0 0 37 37" fill="none" xmlns="http://www.w3.org/2000/svg">
<mask id="mask0_67_738" style="mask-type:alpha" maskUnits="userSpaceOnUse" x="0" y="0" width="37" height="37">
<rect width="36.8264" height="36.8264" fill="#D9D9D9"/>
</mask>
<g mask="url(#mask0_67_738)">
<path d="M30.0749 32.2231L20.4079 22.5561C19.6407 23.1699 18.7584 23.6558 17.761 24.0139C16.7637 24.3719 15.7023 24.5509 14.5771 24.5509C11.7895 24.5509 9.43035 23.5855 7.49952 21.6547C5.56869 19.7238 4.60327 17.3646 4.60327 14.5771C4.60327 11.7895 5.56869 9.43035 7.49952 7.49952C9.43035 5.56869 11.7895 4.60327 14.5771 4.60327C17.3646 4.60327 19.7238 5.56869 21.6547 7.49952C23.5855 9.43035 24.5509 11.7895 24.5509 14.5771C24.5509 15.7023 24.3719 16.7637 24.0139 17.761C23.6558 18.7584 23.1699 19.6407 22.5561 20.4079L32.2231 30.0749L30.0749 32.2231ZM14.5771 21.482C16.4951 21.482 18.1255 20.8107 19.4681 19.4681C20.8107 18.1255 21.482 16.4951 21.482 14.5771C21.482 12.659 20.8107 11.0287 19.4681 9.68608C18.1255 8.34345 16.4951 7.67214 14.5771 7.67214C12.659 7.67214 11.0287 8.34345 9.68608 9.68608C8.34345 11.0287 7.67214 12.659 7.67214 14.5771C7.67214 16.4951 8.34345 18.1255 9.68608 19.4681C11.0287 20.8107 12.659 21.482 14.5771 21.482Z" fill="black"/>
</g>
</svg>
