<svg width="52" height="52" viewBox="0 0 52 52" fill="none" xmlns="http://www.w3.org/2000/svg">
<mask id="mask0_67_704" style="mask-type:alpha" maskUnits="userSpaceOnUse" x="0" y="0" width="52" height="52">
<rect x="0.503662" y="0.691162" width="50.7947" height="50.7947" fill="#D9D9D9"/>
</mask>
<g mask="url(#mask0_67_704)">
<path d="M13.2025 47.253C12.0385 47.253 11.042 46.8386 10.213 46.0096C9.38408 45.1807 8.9696 44.1842 8.9696 43.0201V17.6228C8.9696 16.4587 9.38408 15.4622 10.213 14.6333C11.042 13.8043 12.0385 13.3899 13.2025 13.3899H17.4354C17.4354 11.0618 18.2643 9.06878 19.9222 7.4109C21.5801 5.75301 23.5731 4.92407 25.9012 4.92407C28.2293 4.92407 30.2223 5.75301 31.8802 7.4109C33.538 9.06878 34.367 11.0618 34.367 13.3899H38.5999C39.7639 13.3899 40.7604 13.8043 41.5894 14.6333C42.4183 15.4622 42.8328 16.4587 42.8328 17.6228V43.0201C42.8328 44.1842 42.4183 45.1807 41.5894 46.0096C40.7604 46.8386 39.7639 47.253 38.5999 47.253H13.2025ZM13.2025 43.0201H38.5999V17.6228H34.367V21.8557C34.367 22.4553 34.1642 22.958 33.7585 23.3636C33.3528 23.7693 32.8502 23.9721 32.2505 23.9721C31.6509 23.9721 31.1482 23.7693 30.7426 23.3636C30.3369 22.958 30.1341 22.4553 30.1341 21.8557V17.6228H21.6683V21.8557C21.6683 22.4553 21.4655 22.958 21.0598 23.3636C20.6542 23.7693 20.1515 23.9721 19.5518 23.9721C18.9522 23.9721 18.4495 23.7693 18.0439 23.3636C17.6382 22.958 17.4354 22.4553 17.4354 21.8557V17.6228H13.2025V43.0201ZM21.6683 13.3899H30.1341C30.1341 12.2258 29.7196 11.2293 28.8907 10.4004C28.0617 9.57144 27.0652 9.15697 25.9012 9.15697C24.7371 9.15697 23.7406 9.57144 22.9117 10.4004C22.0828 11.2293 21.6683 12.2258 21.6683 13.3899Z" fill="#91829A"/>
</g>
</svg>
