<?xml version="1.0" encoding="UTF-8"?>
<svg id="Layer_1" xmlns="http://www.w3.org/2000/svg" version="1.1" viewBox="0 0 50 50">
  <!-- Generator: Adobe Illustrator 29.5.1, SVG Export Plug-In . SVG Version: 2.1.0 Build 141)  -->
  <defs>
    <style>
      .st0 {
        fill: #fff;
      }
    </style>
  </defs>
  <path class="st0" d="M42.6,12.8c-4.6-.3-8.3-3.9-8.7-8.5,0-.7-.7-1.3-1.5-1.3h-5.9c-.8,0-1.5.7-1.5,1.5,0,0,0,7.1,0,14.3,0,3.6,0,7.1,0,9.8,0,2.7,0,4.4,0,4.5,0,2.7-2.4,4.8-5.2,4.8s-4.9-2.2-4.9-4.9,2.2-4.9,4.9-4.9.3,0,.6,0c.8,0,1.5-.5,1.6-1.3,0,0,0-.1,0-.2v-6.1c0-.8-.6-1.4-1.4-1.5-.2,0-.5,0-.9,0-7.7,0-13.9,6.2-13.9,13.9s6.2,13.9,13.9,13.9,13.9-6.2,13.9-13.9v-13.2c2.1,1.7,4.8,2.8,7.7,2.8s.8,0,1.1,0c.8,0,1.3-.7,1.3-1.5v-6.8c0-.8-.6-1.4-1.4-1.5ZM41,19.6c-3.1-.2-5.9-1.7-7.5-4.2-.4-.7-1.3-.9-2-.4-.4.3-.7.7-.7,1.2v16.8c0,6.1-4.9,11-11,11s-11-4.9-11-11,4.6-10.5,10.3-10.9v3.2c-4,.4-7.1,3.6-7.1,7.7s3.5,7.8,7.8,7.8,8.1-3.4,8.1-7.7c0,0,0-1.8,0-4.5,0-2.7,0-6.3,0-9.8,0-6.4,0-11.6,0-12.8h3.3c1.1,4.8,4.8,8.5,9.7,9.4v4.2Z"/>
</svg>