<?xml version="1.0" encoding="UTF-8"?>
<svg id="Layer_1" xmlns="http://www.w3.org/2000/svg" version="1.1" viewBox="0 0 561 800">
  <!-- Generator: Adobe Illustrator 29.5.1, SVG Export Plug-In . SVG Version: 2.1.0 Build 141)  -->
  <defs>
    <style>
      .st0 {
        fill: none;
        stroke: #fff;
        stroke-linecap: round;
        stroke-linejoin: round;
        stroke-width: 50px;
      }
    </style>
  </defs>
  <path class="st0" d="M70.9,148.8c-11.9,150.9,23.5,442,44,524M114.9,672.9c13.8,51.5,107.7,67.3,180.2,6.5M295.1,679.3c94.7-88.4,97.9-232.4,195.7-580M490.7,99.4c7.6-28.4-11.6-14.7-11.6-14.7-25.3,14.7-22.9,16.7-26.4,20.2M452.7,105c-4.9,4.9-14.7,5.8-14.7,5.8-6.5,0-11.3,6.7-11.3,6.7M426.8,117.5c-55.7,55.7-105.5,297.9-143.7,410.7-9.2,34.4-35.9,85.5-35.9,85.5-13.5-36-15.9-398.2-15.9-398.2"/>
  <path class="st0" d="M231.3,215.4c0-22.4,1.9-42.3,1.9-42.3M233.3,173c1.9-91-55.2-76.2-97.1-73.5M70.9,148.8c0-9,10.4-34.7,65.3-49.4"/>
</svg>